<?xml version="1.0" encoding="utf-8"?>
<svg viewBox="0 0 1017.4053 471.02231" xmlns="http://www.w3.org/2000/svg" xmlns:xlink="http://www.w3.org/1999/xlink">
  <defs>
    <filter id="bk">
      <feGaussianBlur stdDeviation="3.1976"/>
    </filter>
    <filter id="bj" x="-.04372" y="-.13541" width="1.0874" height="1.2708">
      <feGaussianBlur stdDeviation="2.7116"/>
    </filter>
    <filter id="bi" x="-.08789" y="-.18906" width="1.1758" height="1.3781">
      <feGaussianBlur stdDeviation="2.581"/>
    </filter>
    <linearGradient id="b">
      <stop stop-color="#fff" offset="0"/>
      <stop stop-color="#9d9d9d" offset="1"/>
    </linearGradient>
    <linearGradient id="a">
      <stop stop-color="#fff" offset="0"/>
      <stop stop-color="#d0d0d0" offset="0.3401"/>
      <stop offset="0.67"/>
      <stop stop-opacity="0" offset="1"/>
    </linearGradient>
    <linearGradient id="be" x1="1342.8" x2="1226.5" y1="1074.4" y2="1245.1" gradientUnits="userSpaceOnUse" spreadMethod="reflect" xlink:href="#a"/>
    <linearGradient id="bd" x1="1065.5" x2="151.31" y1="1025.6" y2="936.93" gradientTransform="matrix(.92906 0 .7117 .59719 104.54 276.66)" gradientUnits="userSpaceOnUse" xlink:href="#a"/>
    <linearGradient id="bc" x1="1401.1" x2="1429.4" gradientUnits="userSpaceOnUse" xlink:href="#a"/>
    <linearGradient id="bb" x1="1732.3" x2="675.49" y1="1155.8" y2="803.45" gradientUnits="userSpaceOnUse" xlink:href="#a"/>
    <linearGradient id="ba" x1="1871.7" x2="2076.3" y1="1503.1" y2="995.23" gradientUnits="userSpaceOnUse" xlink:href="#a"/>
    <linearGradient id="ay" x1="1089.7" x2="1426.8" y1="2109" y2="801.17" gradientTransform="matrix(.9644 -.26443 .26443 .9644 2.1429 220)" gradientUnits="userSpaceOnUse" xlink:href="#a"/>
    <linearGradient id="ax" x1="978" x2="1008.8" y1="987.24" y2="935.22" gradientUnits="userSpaceOnUse" xlink:href="#b"/>
    <linearGradient id="aw" x1="986.39" x2="1002.9" y1="972.96" y2="958.97" gradientUnits="userSpaceOnUse" xlink:href="#a"/>
    <linearGradient id="av" x1="1491" x2="1583.8" gradientUnits="userSpaceOnUse" xlink:href="#b"/>
    <linearGradient id="au" x1="1382.3" x2="1329.6" y1="968.9" y2="1113.3" gradientUnits="userSpaceOnUse" xlink:href="#b"/>
    <linearGradient id="at" x1="1475.4" x2="1594" y1="1155.5" y2="1160.6" gradientUnits="userSpaceOnUse" xlink:href="#a"/>
    <linearGradient id="as" x1="1432.9" x2="1540.8" y1="987.57" y2="1162.1" gradientUnits="userSpaceOnUse" xlink:href="#a"/>
    <linearGradient id="ar" x1="1894" x2="1885.3" y1="924.16" y2="1019.2" gradientUnits="userSpaceOnUse" xlink:href="#b"/>
    <linearGradient id="ap" x1="418.69" x2="318.49" y1="906.95" y2="1080.3" gradientTransform="matrix(1.0261 0 .78607 .64564 -21.666 230.66)" gradientUnits="userSpaceOnUse" xlink:href="#b"/>
    <linearGradient id="ao" x1="1051.6" x2="1872.9" y1="1310" y2="1327.8" gradientTransform="matrix(.9644 -.26443 .26443 .9644 17.143 231.43)" gradientUnits="userSpaceOnUse" xlink:href="#a"/>
    <linearGradient id="an" x1="1411" x2="1508.8" y1="1404.2" y2="1234.5" gradientTransform="matrix(.9644 -.26443 .26443 .9644 17.143 231.43)" gradientUnits="userSpaceOnUse" xlink:href="#a"/>
    <linearGradient id="am" x1="1465.5" x2="1480.3" y1="954.93" y2="940.64" gradientUnits="userSpaceOnUse" xlink:href="#b"/>
    <linearGradient id="al" x1="1017.2" x2="298.26" y1="817.56" y2="926.78" gradientTransform="matrix(.98749 0 .75646 .63475 39.345 242.94)" gradientUnits="userSpaceOnUse" xlink:href="#b"/>
    <linearGradient id="ak" x1="1562.5" x2="1768.6" y1="759.79" y2="955.76" gradientUnits="userSpaceOnUse" xlink:href="#a"/>
    <linearGradient id="aj" x1="1340.1" x2="1168.7" y1="1070" y2="1320.6" gradientUnits="userSpaceOnUse" spreadMethod="reflect" xlink:href="#a"/>
    <linearGradient id="bh" x1="1323.2" x2="1386" y1="635.23" y2="1032.4" gradientUnits="userSpaceOnUse" xlink:href="#a"/>
    <linearGradient id="bg" x1="386.85" x2="647.63" y1="1017.6" y2="862.33" gradientTransform="matrix(1 0 .76604 .64279 -918.94 -543.09)" gradientUnits="userSpaceOnUse" xlink:href="#b"/>
    <linearGradient id="bf" x1="165.25" x2="1075.1" y1="1137.3" y2="636.09" gradientTransform="matrix(1.0118 0 .7751 .65039 2.5767 223.89)" gradientUnits="userSpaceOnUse" xlink:href="#a"/>
    <linearGradient id="az" x1="1512.2" x2="1964.1" y1="1020.4" y2="1021.4" gradientUnits="userSpaceOnUse" xlink:href="#b"/>
    <linearGradient id="aq" x1="981.67" x2="1340.1" y1="1032.3" y2="1039.9" gradientUnits="userSpaceOnUse" xlink:href="#b"/>
    <radialGradient id="ag" cx="1179.1" cy="851.18" r="16.219" gradientTransform="matrix(.96593 .25882 -.66468 2.4806 605.94 -1561.1)" gradientUnits="userSpaceOnUse" xlink:href="#b"/>
    <radialGradient id="af" cx="673.27" cy="378.93" r="98.168" gradientTransform="matrix(6.6115 3.8172 -1.1351 1.9661 -2421.1 -2229.8)" gradientUnits="userSpaceOnUse" xlink:href="#a"/>
    <radialGradient id="ad" cx="562.12" cy="120.92" r="37.923" gradientTransform="matrix(4.3693 1.1708 -1.301 4.8553 -888.3 -406.76)" gradientUnits="userSpaceOnUse" xlink:href="#a"/>
    <radialGradient id="ac" cx="1019.6" cy="957.67" r="54.296" gradientTransform="matrix(.23246 -.06229 .10678 .36566 1080.6 818.09)" gradientUnits="userSpaceOnUse" xlink:href="#b"/>
    <radialGradient id="ab" cx="1001" cy="937.41" r="54.296" gradientTransform="matrix(2.2258 0 .07866 3.2128 -891.93 -2038.4)" gradientUnits="userSpaceOnUse" xlink:href="#b"/>
    <radialGradient id="aa" cx="1233.5" cy="535.33" r="11.854" gradientTransform="matrix(2.7966 .60249 -.17059 .8969 -2124.8 -687.98)" gradientUnits="userSpaceOnUse" spreadMethod="reflect" xlink:href="#b"/>
    <radialGradient id="y" cx="1233.5" cy="535.33" r="13.58" gradientTransform="matrix(1 0 0 .28315 0 383.75)" gradientUnits="userSpaceOnUse" spreadMethod="reflect" xlink:href="#b"/>
    <radialGradient id="x" cx="1045.5" cy="716.46" r="34.888" gradientTransform="matrix(1.4155 .37928 -.15749 .58655 -251.81 156.67)" gradientUnits="userSpaceOnUse" xlink:href="#b"/>
    <radialGradient id="w" cx="1066.4" cy="751.78" r="34.888" gradientTransform="matrix(-23.246 -10.168 1.2359 -2.7193 25604 14134)" gradientUnits="userSpaceOnUse" xlink:href="#a"/>
    <radialGradient id="v" cx="1004.7" cy="965.19" r="45.166" gradientTransform="matrix(-1.4024 -.25288 .38528 -2.7575 2453.5 3996.1)" gradientUnits="userSpaceOnUse" spreadMethod="reflect" xlink:href="#b"/>
    <radialGradient id="u" cx="1412.2" cy="1111.4" r="58.882" gradientTransform="matrix(.99187 0 0 1.4808 11.475 -534.38)" gradientUnits="userSpaceOnUse" xlink:href="#a"/>
    <radialGradient id="t" cx="999.8" cy="972.31" r="54.296" gradientTransform="matrix(2.0588 0 .07276 3.2581 -713.96 -2056.4)" gradientUnits="userSpaceOnUse" xlink:href="#a"/>
    <radialGradient id="s" cx="984.14" cy="962.49" r="45.166" gradientTransform="matrix(-.47375 .12694 -.1958 -.73073 1639 1541.2)" gradientUnits="userSpaceOnUse" spreadMethod="reflect" xlink:href="#b"/>
    <radialGradient id="r" cx="1349.8" cy="735.95" r="11.713" gradientTransform="matrix(9.3823 -2.514 9.91 36.985 -18590 -22879)" gradientUnits="userSpaceOnUse" xlink:href="#b"/>
    <radialGradient id="q" cx="1054.4" cy="962.37" r="42.15" gradientTransform="matrix(9.0598 0 0 16.013 -8265.2 -14448)" gradientUnits="userSpaceOnUse" xlink:href="#a"/>
    <radialGradient id="p" cx="1895.1" cy="970.22" r="14.079" gradientTransform="matrix(1.9713 -.5282 .70822 2.6431 -2527.8 -593.18)" gradientUnits="userSpaceOnUse" xlink:href="#a"/>
    <radialGradient id="o" cx="1519.6" cy="807.57" r="14.196" gradientTransform="matrix(1.3112 -1.3112 1.702 1.702 -1830.3 1657)" gradientUnits="userSpaceOnUse" xlink:href="#a"/>
    <radialGradient id="n" cx="1811.9" cy="951.37" r="42.976" gradientTransform="matrix(-1.2729 2.3746 -2.3098 -1.2381 6198.2 -2248.4)" gradientUnits="userSpaceOnUse" spreadMethod="reflect" xlink:href="#a"/>
    <radialGradient id="m" cx="999.8" cy="972.31" r="54.296" gradientTransform="matrix(1.2822 -.34355 .55378 2.4057 -831.4 -1028)" gradientUnits="userSpaceOnUse" xlink:href="#a"/>
    <radialGradient id="l" cx="1647.5" cy="720.66" r="143.3" gradientTransform="matrix(4.4119 1.3836 -.52045 1.6595 -5308.9 -2567.9)" gradientUnits="userSpaceOnUse" xlink:href="#a"/>
    <radialGradient id="k" cx="1657.4" cy="755.82" r="143.3" gradientTransform="matrix(4.8973 1.5359 -.57771 1.8421 -6079.3 -2957.5)" gradientUnits="userSpaceOnUse" xlink:href="#b"/>
    <radialGradient id="j" cx="1527.9" cy="825.31" r="58.786" gradientTransform="matrix(2.1379 2.1379 -1.7625 1.7625 -303.75 -3655.2)" gradientUnits="userSpaceOnUse" xlink:href="#a"/>
    <radialGradient id="i" cx="1933.8" cy="1076.8" r="7.635" gradientTransform="matrix(0 9.3375 -36.629 0 41201 -16971)" gradientUnits="userSpaceOnUse" xlink:href="#a"/>
    <radialGradient id="h" cx="1527.9" cy="825.31" r="58.786" gradientTransform="matrix(2.2676 2.2676 -1.8694 1.8694 -414.71 -3939.4)" gradientUnits="userSpaceOnUse" xlink:href="#b"/>
    <radialGradient id="g" cx="1871.6" cy="952" r="42.976" gradientTransform="matrix(2.4219 1.3983 -1.453 2.5166 -1246.9 -4081.4)" gradientUnits="userSpaceOnUse" spreadMethod="reflect" xlink:href="#b"/>
    <radialGradient id="f" cx="1642.3" cy="979.48" r="250.69" gradientTransform="matrix(2.4569 0 0 1.066 -2397.8 -42.615)" gradientUnits="userSpaceOnUse" spreadMethod="reflect" xlink:href="#a"/>
    <radialGradient id="e" cx="1654.8" cy="878.06" r="14.402" gradientTransform="matrix(-1.7901 0 0 -1.4277 4633.7 2133.7)" gradientUnits="userSpaceOnUse" xlink:href="#b"/>
    <radialGradient id="d" cx="1272.1" cy="768.19" r="504.54" gradientTransform="matrix(.46281 -.86398 1.9568 1.0482 -629.18 1237)" gradientUnits="userSpaceOnUse" spreadMethod="reflect" xlink:href="#a"/>
    <radialGradient id="c" cx="1259.2" cy="744.54" r="500.39" gradientTransform="matrix(.7258 .19448 -.07568 .28244 388.79 467.47)" gradientUnits="userSpaceOnUse" xlink:href="#b"/>
    <radialGradient id="ai" cx="1132.7" cy="1094.9" r="206.38" gradientTransform="matrix(1.9888 -3.7401 2.4821 1.3198 -3826.9 3992.9)" gradientUnits="userSpaceOnUse" xlink:href="#b"/>
    <radialGradient id="ah" cx="1654.7" cy="475.07" r="192.93" gradientTransform="matrix(-.34119 .88811 -2.6407 -1.0145 3600.5 213.01)" gradientUnits="userSpaceOnUse" spreadMethod="reflect" xlink:href="#a"/>
    <radialGradient id="ae" cx="1545.4" cy="1768.6" r="353.06" gradientTransform="matrix(.72875 .28314 -.10799 .27794 668.84 192.93)" gradientUnits="userSpaceOnUse" spreadMethod="reflect" xlink:href="#b"/>
    <radialGradient id="z" cx="954.41" cy="991.94" r="54.296" gradientTransform="matrix(5.2528 -1.4075 1.4869 4.8066 -5198.7 -2224.1)" gradientUnits="userSpaceOnUse" xlink:href="#a"/>
  </defs>
  <g transform="matrix(-1, 0, 0, 1, 1945.736206, -774.52002)">
    <path d="m1349.3 804.62c-63.774 0.48061-127.33 9.89-189.94 22.219-58.599 2.8648-116.38 14.256-174.16 24.031-20.794 140.03 21.19 87.732-6.7218 188 5.0134 32.007 12.456 10.026 42.472 25.25 89.076 6.3722 171.63 42.2 253.97 73.781 54.322 17.841 77.387 64.61 149.27 78.508s167.75 23.14 258.51 21.211c73.47-10.821 149.37-17.799 218.22-47.719 47.546-9.0647 45.509-60.552 44.5-98.469 1.1644-51.912-37.025-90.9-69.25-126.81-43.664-50.251-113.87-50.042-174.97-50.906-33.604-22.259-69.316-41.109-105.28-59.219-51.788-31.282-112.4-40.685-171.72-45.969-24.967-2.9118-49.951-4.0943-74.906-3.9062z" fill="#1a1a1a" filter="url(#bk)"/>
    <path d="m1553.1 808.09c-22.664 6.9411-152.75 18.935-218.94 27.919 18.438 28.88 32.654 48.949 61.299 103.33 3.7867 6.8793 130.58 13.682 200.85 6.5873 48.008-5.9354 167.85-17.686 123.85-50.574-3.6526-2.73-7.2957-5.2248-10.918-7.5723-3.6512-0.0937-7.1417-0.18635-10.979-0.27703-14.32-9.609-29.744-18.957-45.898-28.104-7.4715-3.3848-13.84-6.639-18.695-10.343-25.778-13.934-53.033-27.481-80.574-40.97z" fill="url(#aj)" opacity=".77"/>
    <path d="m998,819.34375c-.0993.0159-.21372.0468-.3125.0625l-.625.0937c-1.6512.2584-3.22721.48486-4.71875.6875l-.4375.0625-.53125.0625c-.0488.006-.1076.025-.15625.0312l-1.71875.21875-1.15625.125c-.92064.0995-1.79235.18343-2.625.25-.72537.058-1.45318.13029-2.15625.21875-.61809.0778-1.21139.18041-1.8125.28125l-.84375.15625c-.4741.0892-.94276.17784-1.40625.28125-.57982.12935-1.15533.25504-1.71875.40625l-.25.0625c-.44373.12213-.87886.27077-1.3125.40625-.38797.12121-.77627.24329-1.15625.375-.41032.14226-.81762.28321-1.21875.4375-.48349.18597-.96719.39067-1.4375.59375l-.15625.0625-.1875.0625c-.30519.1352-.6066.29517-.90625.4375-.26209.12464-.52336.24499-.78125.375-.1804.0909-.35481.18736-.53125.28125l-.25.125-.28125.15625c-.26195.14269-.52374.2892-.78125.4375-.47007.2707-.91951.55475-1.375.84375-.51908.32935-1.03075.67883-1.53125,1.03125-.39519.27827-.77243.55151-1.15625.84375l-.0937.0625c-.0739.0503-.14724.10068-.21875.15625l-.34375.28125c-.41967.33366-.84404.68104-1.25,1.03125l-.0937.0625c-.18307.16112-.34844.33565-.53125.5-.0944.0849-.18758.16422-.28125.25-.10571.0934-.21137.18687-.3125.28125l-.125.125c-.41326.38898-.82019.78124-1.21875,1.1875l-.0312.0312c-.40815.4169-.79448.81559-1.1875,1.25s-.78205.86649-1.15625,1.3125c-.0239.0285-.0387.0652-.0625.0937-.34943.41848-.69423.84886-1.03125,1.28125-.046.059-.0792.12823-.125.1875-.31252.40469-.63551.80246-.9375,1.21875-.0662.0913-.12176.18939-.1875.28125-.27723.38742-.54408.75931-.8125,1.15625l-.0625.0937c-.13088.19411-.24619.39743-.375.59375-.2881.43908-.56585.86268-.84375,1.3125-.33513.54245-.67936,1.09887-1,1.65625-.18319.3187-.3527.64536-.53125.96875-.58765,1.06434-1.14846,2.13807-1.6875,3.25-.44046.90858-.87175,1.84388-1.28125,2.78125-.0185.0423-.0441.0827-.0625.125l-.0937.21875c-.18559.43027-.35189.87669-.53125,1.3125-.10149.25178-.21145.4978-.3125.75-.22903.5716-.46867,1.1385-.6875,1.71875-.003.009.003.0221 0,.0312-.0872.23679-.16276.48147-.25.71875-.23238.63206-.46658,1.26503-.6875,1.90625-.10617.30242-.21108.60291-.3125.90625-.007.0217-.024.0408-.0312.0625-.003.009.003.0219 0,.0312-.40927,1.22559-.81795,2.46523-1.1875,3.71875-.003.01.003.0217 0,.0312 1.4303,5.52883 3.84973,11.32583 7.21875,17.1875 .0726-.0976.14567-.18534.21875-.28125l.0312-.0312c.36814-.48205.74543-.93441 1.125-1.375 .21834-.25354.43421-.50994.65625-.75l.0625-.0625c.10554-.11326.20614-.2335.3125-.34375l.0312-.0312 .0625-.0625c.22762-.23373.45808-.44089.6875-.65625 .1856-.17665.37456-.36326.5625-.53125 .0555-.0496.10057-.10858.15625-.15625 .0919-.0806.18881-.14014.28125-.21875 .10206-.0868.20978-.16564.3125-.25 .22053-.18091.4327-.36163.65625-.53125 .29959-.22732.60134-.44894.90625-.65625 .34048-.23176.68429-.48025 1.03125-.6875l.0625-.0312c.13327-.0789.27204-.14339.40625-.21875 .3127-.17562.61981-.34349.9375-.5l.15625-.0625c.0835-.0403.16616-.086.25-.125 .0339-.0157.0598-.047.0937-.0625 .13416-.0614.27124-.0981.40625-.15625 .28089-.12098.55925-.23686.84375-.34375 .50228-.18839 1.01803-.35469 1.53125-.5l.34375-.0937c.17604-.0464.35398-.11472.53125-.15625 .44368-.10394.8897-.18034 1.34375-.25 .21007-.0342.41334-.066.625-.0937 .60789-.0806 1.22323-.1277 1.84375-.15625 .37397-.0172.74664-.0326 1.125-.0312h.21875c.40368.006.81029.0366 1.21875.0625 .39351.0245.7897.0508 1.1875.0937l.25.0312c.0421.008.0823.0261.125.0312 .60838.0743 1.22599.13413 1.84375.25 .0322.006.0616.0252.0937.0312l.125.0312c.63965.12479 1.28849.26997 1.9375.4375 .70361.18162 1.41113.39502 2.125.625 .68303.22004 1.37077.45618 2.0625.71875l.0937.0312c.0735.0281.14511.0652.21875.0937 .65673.25475 1.30489.52128 1.96875.8125 .72344.31735 1.45629.64113 2.1875,1 1.17752.57791 2.33943,1.21814 3.46875,1.90625 .0443.027.0807.0666.125.0937 .59414.36485 1.16805.73036 1.75,1.125 .48777.33003.95837.64955 1.4375,1 8.05226,3.45457 15.80985,10.19306 22.65625,19.4375l287.0625,105.93795 53.4375,19.7188c.059-.1158.128-.2285.1875-.3438 .2079-.4023.4095-.7927.625-1.1874 .1639-.3006.3316-.5791.5-.875 .3881-.6824.7754-1.342 1.1875-2v-.031c.4066-.6487.851-1.2815 1.2813-1.9063 .4355-.6325.8836-1.2673 1.3437-1.875 .086-.1136.1631-.2309.25-.3437 .2814-.3652.583-.7093.875-1.0625 .066-.081.121-.1697.1875-.25 .033-.04.06-.086.094-.125 .099-.1185.2127-.2264.3124-.3438 .3932-.4627.7782-.9289 1.1876-1.375 .5089-.5544 1.0283-1.0968 1.5624-1.625l.125-.125c.4959-.4864 1.0135-.9428 1.5313-1.4062 .5604-.5015 1.1325-.9947 1.7187-1.4688 .5724-.4625 1.1528-.9077 1.75-1.3437l.063-.031c.6123-.4455 1.2361-.8953 1.875-1.3124s1.3031-.7993 1.9687-1.1876 1.3365-.7654 2.0313-1.125c1.3984-.7238 2.8326-1.3987 4.3437-1.99995l.062-.0312c.6926-.27444 1.4083-.53317 2.125-.78125l.094-.0312 .2812-.0937c.689-.23277 1.3824-.44798 2.0938-.65625 .7545-.22097 1.5326-.432 2.3124-.625l.1563-.0312c1.674-.4094 3.3957-.75323 5.1875-1.03125 .8935-.13864 1.7955-.26978 2.7188-.375 1.8541-.21132 3.7737-.36398 5.75-.4375 .7748-.0288 1.5364-.0179 2.3124,0 1.5419.0356 3.1127.15845 4.6563.375h.031c2.3307.32876 4.6445.86649 6.9687,1.59375 .7747.24242 1.5394.49579 2.3125.78125 1.5461.57091 3.0884,1.22941 4.625,1.9687s3.0703,1.566 4.5938,2.4688c2.2851,1.3542 4.5676,2.8857 6.8124,4.5938s4.4644,3.5798 6.6563,5.625c.7359.6866 1.4585,1.4016 2.1875,2.125 2.166,2.1493 4.3097,4.4437 6.4062,6.9062 .01.01-.01.025 0,.031 4.1979,4.9325 8.2501,10.4745 12.0938,16.5626 .6415,1.0157 1.2762,2.0479 1.9062,3.0937 1.2599,2.0918 2.5078,4.2293 3.7188,6.4375s2.4038,4.4933 3.5625,6.8125 2.2728,4.6991 3.375,7.125 2.1763,4.8793 3.2187,7.4063 2.0527,5.1265 3.0313,7.75 1.9326,5.285 2.8437,8c.9109,2.7152 1.7855,5.4794 2.625,8.2812s1.6415,5.6482 2.4063,8.5312c1.5292,5.7668 2.9184,11.6868 4.125,17.75 .9053,4.5471 1.6972,9.1495 2.4063,13.8438v.031c.2346,1.5548.4752,3.1179.6874,4.6876 .2151,1.5901.4022,3.1763.5938,4.7812 .3808,3.1888.7148,6.4131 1,9.6562 .1425,1.6217.2883,3.2408.4062,4.875s.2196,3.2601.3126,4.9063c.0005.01-.0006.021 0,.031 .1849,3.2822.3237,6.6111.4062,9.9374 .1236,4.9847.117,9.9926 0,15.0626-.0005.021.0005.041 0,.062-.079,3.4045-.2142,6.8134-.4062,10.25l6.25,3.0313c4.2113.1504 8.3853.3272 12.5312.5313h.031c4.1354.2037 8.2336.4424 12.3126.6874h.031c16.3463.9823 32.2731,2.2443 48.0625,3.4063h.031c7.8892.5805 15.7392,1.1446 23.5937,1.625h.031c9.8207.6005 19.6425,1.0698 29.5312,1.3437h.031c1.9696.055 3.9621.1193 5.9376.1563 3.9716.074 7.9353.099 11.9374.094h.031c1.9908,0 4.0001-.01 6-.031 4.0207-.05 8.0608-.134 12.125-.2812s8.1647-.368 12.2813-.625 8.2599-.5585 12.4374-.9376c2.0888-.1895 4.1756-.4026 6.2813-.625 9.6914-1.7616 19.605-3.3795 29.6563-4.9687 20.1024-3.1785 40.7816-6.2122 61.5-9.8437 5.1795-.9079 10.356-1.8481 15.5312-2.8438 15.5157-2.9853 30.9882-6.4224 46.1562-10.625 5.0585-1.4025 10.1083-2.9145 15.0938-4.5 2.4931-.7926 4.9659-1.5947 7.4375-2.4375 4.9426-1.686 9.8435-3.4703 14.6875-5.375 3.6334-1.4283 7.2431-2.9369 10.8125-4.5 2.3794-1.0422 4.7142-2.113 7.0625-3.2187 1.1742-.5529 2.3653-1.1182 3.5312-1.6876 1.1577-.5652 2.3195-1.1369 3.4688-1.7187 2.3151-1.1724 4.6265-2.3831 6.9062-3.625 3.412-1.8585 6.7984-3.821 10.125-5.8437 2.2227-1.3519 4.4431-2.7275 6.625-4.1563 .055-.04.2103-.2088.3126-.3125 7.2426-7.7585 22.5585-99.326-7.8126-142.5625-6.021-8.4556-11.7439-16.18169-17.25-23.40625-103.5024,23.71587-236.7095,59.45855-349.9062,46.28125 .0004-29.19188-119.5611-67.15625-177.1562-67.15625-121.6025-4.4413-217.4227-52.66109-319.2813-111.46875-22.5946-13.045-45.6512-20.77-65.5-22.96875h-.0625z" fill="url(#c)"/>
    <path d="m985.71 820.93c26.595-2.1263 97.83-21.453 162.86-22.143 59.163-9.7842 118.6-22.598 178.66-23.705 76.056-1.4027 167.94 7.8392 223.48 27.277 53.923 26.154 106.92 52.539 150.25 81.342 119.01 2.7862 148.49 5.2575 226.18 114.37 30.853 43.923 14.584 137.71 7.5 142.86-69.822 45.723-161.04 51.264-238.57 65.357-67.381 7.1137-125.83-2.9502-193.21-5.3572l-6.25-3.0357c6.1273-109.64-46.299-204.17-95.893-202.32-63.083 2.347-63.282 75.903-42.5 155.36-8.8183-0.2109-11.298-10.704-15-15.179-65.737-28.253-159.35-64.54-225.2-84.957-32.113-9.9555-55.944-10.558-67.653-12.722-12.985-63.485-26.195-145.07-65.357-164.29-23.59-11.578-43.321-2.1103-46.764 60.166-0.95437-13.412-2.4808-8.0401-1.872-15.58 2.7918-34.574 5.6769-93.951 49.35-97.443z" fill="url(#d)"/>
    <path d="m1649.5 867.27c3.5767 3.2213 8.7169 7.7967 13.469 13.219 6.4213 7.3269 11.868 16.005 11.062 24.156l1 0.0937c0.8544-8.6521-4.7878-17.497-11.281-24.906-4.2189-4.8139-8.7498-8.968-12.219-12.094l-2.0313-0.46875z" fill="url(#e)"/>
    <path d="m1712.3 884c3.6975 2.3751 7.397 4.9268 11.125 7.6875 45.09 33.389-77.713 45.318-126.91 51.344-48.71 4.8727-123.88 3.2907-168.66-0.4062 112.54 48.666 44.842 22.495 108.72 62.625 11.086 6.9843 27.359 25.414 37.781 44.25 5.6304 8.9994 9.7325 18.838 11.531 29.531 2.2647 13.464 117.27 18.402 127.34 16.313 58.375-17.398 211.13-46.699 215.78-63.594 0.9183-13.91-0.9959-26.62-5.125-38.219l-0.062-0.094c-72.671-100.95-103.73-106.69-211.53-109.44z" fill="url(#f)"/>
    <path d="m1452 822.18c-8.9779 1.0188-18.014 2.036-27.156 3.0625 0.1082 7.0328-2.9234 10.785 0 17.719 9.4036 22.302 65.125 59.438 65.125 59.438 14.959 11.994 18.908 20.368 15.688 26.219-0.1555 9.7581-16.106 14.068-37.156 16l16.406 3.75c37.803 1.1241 80.172 0.71612 111.41-2.4375 35.148-4.3454 108.8-11.814 128.47-28.406l4.9063-8.25c6e-4 -0.0104-5e-4 -0.0208 0-0.0312 0.2097-4.157-2.6728-8.749-9.5313-13.875-3.6526-2.73-7.2838-5.2462-10.906-7.5938-3.6512-0.0937-7.1627-0.19057-11-0.28125-7.1298-4.7844-14.525-9.4939-22.156-14.156l-224.09-51.156z" fill="url(#ak)" opacity=".77"/>
    <path d="m1650.8 867.55c3.6085 3.2182 8.6674 7.7142 13.312 12.969 6.4911 7.3428 12.001 16.049 11.188 24.219l1 0.0937c0.8636-8.6709-4.8421-17.543-11.406-24.969-4.1608-4.7069-8.5754-8.7255-12.062-11.844l-2.0312-0.46875z" fill="#333"/>
    <path d="m1341.7 774.94c-4.8641 5e-3 -9.6841 0.0686-14.437 0.15625-60.066 1.1077-119.49 13.903-178.66 23.688-65.027 0.68937-136.25 20.03-162.84 22.156-40.168 3.2115-45.802 53.486-48.625 88.469 1.4746-1.0449 2.7356-1.9412 4.3125-3.0625 7.1886-37.275 24.066-42.147 43.594-32.562 0.65339 0.32067 1.2984 0.67623 1.9375 1.0312 0.0494-1e-3 0.0937 0.0263 0.0937 0.0625h0.0312c0.024 0.0161 0.0374 0.0484 0.0625 0.0625 0.73771 0.41477 1.4686 0.85294 2.1875 1.3125l0.0625 0.0312 0.0625 0.0312c0.0871 0.056 0.16321 0.13083 0.25 0.1875 0.65544 0.42799 1.2975 0.84804 1.9375 1.3125 7e-3 5e-3 0.0244-5e-3 0.0312 0 7.4351 3.1394 14.607 9.1079 21.063 17.25l6.9687 4.5 337.22 119.94c8.5924-14.342 22.66-23.151 43.813-23.938 49.593-1.8451 102 92.708 95.875 202.34l6.25 3.0313c49.23 1.7586 93.712 7.5967 140.38 7.8437l-3.5-22.906c-28.246-2.2187-49.769-4.9163-54.719-11.156-17.285-16.127-37.068-65.622-30.594-72l73.469 5.5312-2.6562-17.5c-21.411-2.7353-38.485-6.6133-39.344-11.719-1.7988-10.693-5.901-20.532-11.531-29.531-10.422-18.836-26.696-37.266-37.781-44.25-49.07-30.828-20.771-22.629-55.906-39.188-44.987-8.6907-74.818-18.397-75.182-18.179-11.847-7.714-19.337-8.8738-9.1615-9.2584-0.6613-0.15366-1.2929-0.3136-1.8437-0.46875-0.2582-0.0719-0.4853-0.14668-0.7188-0.21875-0.4456-0.13958-0.898-0.2971-1.25-0.4375h-0.031c-0.1605-0.0633-0.2973-0.12401-0.4376-0.1875-0.081-0.0369-0.1441-0.0569-0.2187-0.0937-0.052-0.0252-0.077-0.0685-0.125-0.0937-0.1398-0.0735-0.262-0.14507-0.375-0.21875-0.1282-0.0823-0.2506-0.16739-0.3437-0.25-0.1241-0.1095-0.2202-0.20248-0.2813-0.3125-29.353-55.212-43.919-75.586-62.812-104.91 67.822-9.121 201.12-21.297 224.34-28.344l-1.5-0.71875c-52.074-18.223-136.1-27.507-209.06-27.438zm-117.22 33.688c3.2006-0.0211 6.5157-0.022 9.9375 0 53.874-0.3888 82.314 10.283 130.84 120.81-109.49-33.648-342.42-119.48-140.78-120.81zm392.78 345c-1.2379 0.014 7.1431 3.3509 18.781 7.8438l-0.7812-5.1563-17.719-2.6563c-0.1235-0.018-0.2135-0.032-0.2812-0.031z" fill="url(#ae)"/>
    <path d="m1235.9 812.91c-27.648 0.17474-59.45 2.995-80.511 8.2702-14.284 3.5776-19.527 9.221-7.5296 16.016 68.316 49.302 145.06 69.89 222.71 95.015-47.922-109.15-76.006-119.68-129.21-119.3-1.8018-0.012-3.6189-0.0117-5.4619 0z" fill="url(#al)"/>
    <path d="m970.19 869.53c-5.5732-0.22248-10.674 1.5112-15.125 5.6875 0.0356 21.974 33.32 137.63 34.375 144.88l-12.446 29.869c1.1506 7.9061 24.877 10.862 32.79 9.7559l52.313-7.3126c6.2134-0.8684 9.0824-5.6131 10.906-11.375-9.6871-1.3089-17.441-2.0049-22.656-2.9687-12.985-63.485-26.181-145.06-65.344-164.28-5.1604-2.5327-10.152-4.0639-14.812-4.25z"/>
    <path d="m1400.7 995.56c-43.594 1.6219-57.139 37.262-54.5 85.344l90.312 82.75c5.8918 5.3961-13.087 8.7592-11.687 16.625l-23.441 24.188c1.3995 7.866 32.079 15.125 39.952 13.77l57.113-7.9586c5.2573-0.9048 8.7901-4.4524 10.5-9.0937-2.0371-0.087-4.0719-0.1767-6.125-0.25l-6.25-3.0313c6.1273-109.64-46.282-204.19-95.875-202.34z"/>
    <path d="m1399.8 938.59c-16.032 3.4285 14.971 14.143 19.649 15.642 15.475 4.9919 43.351 15.24 57.82 26.577 0.7015 0.14685 1.4271 0.37972 2.1874 0.65625 32.832 9.156 33.111 8.6316 57.156 23.781 7.0442 4.4381 16.196 13.502 24.594 24.344 1.0074 0.3574 1.6025 0.3488 1.75-0.125 1.9368-6.2197-8.7261-39.297-52.75-61.969-28.891-14.879-85.6-28.388-110.41-28.906z" fill="url(#am)"/>
    <path d="m1843.5 910.57-1.1204 0.86179c-7.3688 5.5676-5.6204 31.7 1.6375 36.454 44.405 29.082 62.814 41.962 85.604 57.539-1.749-3.7793-3.72-7.3488-6.0038-10.6-31.752-44.591-54.761-69.773-80.117-84.254z" fill="url(#g)"/>
    <path d="m1471.4 977.65c-8.3786 0.29062-10.872 10.83-2.7842 23.732l46.404 37.72c6.5764 5.3443 43.023 36.36 51.144 38.78 7.1328 2.126 18.049 2.3683 21.147-1.5578-4.8564-26.086-33.138-61.834-50.05-72.49-25.504-16.069-25.8-15.512-60.624-25.224-1.9236-0.69961-3.6853-1.015-5.2369-0.96122z" fill="url(#h)"/>
    <path d="m1903.6 1057.8c-3.7219 0.053-7.186 0.4648-9.5938 1.125l-160.94 44.125c-7.7052 2.1127-13.042 9.0149-13.312 17-0.2427 7.1619 0.2245 18.323 4.5938 24.562 4.5829 6.5446 13.686 12.813 21.656 12.25 48.77-3.4472 107.56-19.95 150.59-38.062 7.3638-3.0994 20.064-16.701 22.937-24.156 4.1948-10.883 9.5781-21.352 3.9688-31.344-2.2779-4.0579-11.718-5.6157-19.906-5.5z" fill="url(#ao)" stroke="url(#an)" stroke-width="5"/>
    <path d="m1924.7 1102.3c-1.2886 12.278-10.236 20.099-21.762 24.74-46.243 22.791-97.538 32.949-148.3 39.711-24.659 2.6609-49.84 6.348-74.32 0.2022-15.757-3.4658-31.426-7.3641-47.149-10.997l72.156 10.781c9.3662-9.717 6.4543-26.964 6.4652-39.891 0.9697-9.6325-5.8569-14.726-14.639-13.446-47.588-3.575-95.176-7.1499-142.76-10.725-3.6434 15.015 6.1752 30.146 11.611 43.814 7.681 13.616 15.294 31.908 32.825 34.289 29.639 5.4853 59.921 5.7522 89.803 9.4704 13.52 1.6981 27.088 2.6897 40.697 1.1529 58.515-4.0864 117.36-14.168 171.88-36.421 13.342-7.4 33.163-12.165 37.75-28.461 0.2614-8.8847-7.8019-21.266-14.25-24.218zm0.9993 2.3124c13.526 10.306 15.209 31.282-3.1168 37.236-39.36 22.34-84.266 32.287-128.42 40.191-28.925 4.5468-58.231 8.1614-87.517 7.9054-20.272-3.252-41.017-5.15-60.531-11.794-8.3256-5.5009 7.5342-9.1883 12.79-8.4222 10.646-0.5804 21.344-2.2977 31.774 1.0567 25.309 4.0862 50.927-0.8939 76.129-3.6116 47.743-7.2705 96.023-17.355 139.3-39.548 10.086-5.0665 19.31-10.87 19.592-23.013z" fill="url(#ah)"/>
    <path d="m1941.4 1042.7c-0.087 0.7143 1.7857 17.503 1.7857 25.493v20.8c0 7.9895-0.087 11.922-2.8572 11.922s-13.444 2.8506-11.071-4.7786c2.1973 0.6783 12.19-57.076 12.143-53.436z" fill="url(#i)" stroke="#333"/>
    <path d="m1474.5 980.56c-7.8994 0.274-10.25 10.211-2.625 22.375l43.75 35.562c6.2003 5.0386 40.562 34.28 48.219 36.562 6.7248 2.0044 17.017 2.2328 19.938-1.4687-4.5786-24.594-31.242-58.298-47.188-68.344-24.046-15.15-24.324-14.625-57.156-23.781-1.8136-0.6596-3.4746-0.95699-4.9374-0.90625z" fill="url(#j)"/>
    <path d="m1401.5 1029.6c-1.8474 0.032-3.7156 0.2354-5.5625 0.5624-14.736 2.6116-26.04 14.341-32.438 30.75s-8.0539 37.592-3.5938 59.844 14.202 41.428 26.5 54.5 27.295 20.112 42.031 17.5 26.063-14.372 32.469-30.781 8.0545-37.561 3.5938-59.813c-4.1816-20.861-13-39.012-24.219-51.969-7.827-9.04-16.882-15.594-26.344-18.656-0.048-0.2235-0.068-0.4736-0.125-0.6874-2.3538-0.5136-4.754-0.8249-7.125-0.9376h-0.062c-1.7141-0.2154-3.4014-0.3411-5.125-0.3124z"/>
    <path d="m1735.3 913.48c-22.42 18.679-106.11 27.088-146.07 31.982-15.99 1.5995-34.578 2.5472-54.079 3.0178 49.347 22.272 102.72 48.591 163.73 82.523 3.6504 2.0303 7.6823 2.6004 11.447 1.7691 71.194-11.144 107.98-21.207 138.79-25.808 3.1662-0.8482 3.9751-2.6206 4.1626-7.2498s-86.415-73.142-117.97-86.234z" fill="url(#k)"/>
    <path d="m1732 917.82c-20.317 16.929-96.162 24.549-132.37 28.985-14.49 1.4496-31.336 2.3085-49.008 2.735 44.72 20.184 93.088 44.036 148.38 74.788 3.3081 1.8401 6.962 2.3568 10.374 1.6033 64.518-10.1 97.859-19.219 125.77-23.389 2.8693-0.7687 3.6025-2.3749 3.7724-6.5702s-78.312-66.287-106.91-78.152z" fill="#4d4d4d"/>
    <path d="m1731.2 919.41c-20.198 16.828-95.595 24.403-131.59 28.812-14.405 1.441-31.151 2.2948-48.719 2.7188 44.456 20.064 92.539 43.775 147.5 74.344 3.2886 1.8291 6.921 2.3427 10.312 1.5938 64.138-10.04 97.282-19.105 125.03-23.25 2.8523-0.7642 3.5811-2.3609 3.75-6.5312s-77.85-65.893-106.28-77.688z" fill="url(#l)"/>
    <path d="m1221.7 810.41c-28.731 0.17775-61.776 3.0464-83.662 8.4121-14.843 3.639-20.291 9.3792-7.8243 16.291 70.99 50.148 150.73 71.089 231.43 96.645-49.798-111.02-78.981-121.74-134.26-121.35-1.8723-0.0122-3.7606-0.0118-5.6758 0z" fill="url(#ap)"/>
    <path d="m1341.5 774.53c-4.8643 5e-3 -9.6839 0.0373-14.437 0.125-60.065 1.1077-119.49 13.935-178.66 23.719-65.027 0.6894-136.28 19.999-162.88 22.125-43.673 3.4917-46.552 62.864-49.344 97.438-0.60887 7.5402 0.92063 2.1816 1.875 15.594 1.2208-22.084 16.356-57.45 21.119-67.669 4.2645-30.635 23.53-41.306 55.31-43.847 26.595-2.1262 71.173-18.487 136.2-19.176 59.163-9.7842 124.31-27.075 184.37-28.183 4.529-0.0835 9.1196-0.11687 13.75-0.125-2.4552-0.0184-4.8804-2e-3 -7.3126 0z" fill="url(#ai)"/>
    <path d="m1228.6 807.91c-28.33 0.17905-60.915 3.0688-82.495 8.474-14.636 3.6658-20.008 9.4483-7.7151 16.411 69.999 50.517 148.63 71.612 228.2 97.356-49.103-111.84-77.88-122.63-132.39-122.24-1.8462-0.0123-3.7081-0.0119-5.5966 0z" fill="url(#bf)"/>
    <path d="m975.36 858.29c-1.4856 7e-3 -2.9501 0.15041-4.4311 0.43779-23.697 4.5964-37.268 44.267-30.294 88.625-3.4855-39.71 10.471-73.361 33.45-77.571 15.32-2.8066 31.099 8.1379 42.747 27.17-10.189-23.486-25.822-38.721-41.472-38.662z" fill="#fff"/>
    <path d="m971.57 861.66c-1.3861 5e-3 -2.7525 0.12411-4.1344 0.36096-22.11 3.7899-34.772 36.5-28.265 73.074-3.2521-32.742 9.7702-60.488 31.211-63.959 14.294-2.3141 29.017 6.7099 39.885 22.403-9.507-19.365-24.093-31.926-38.696-31.878z" fill="#e6e6e6"/>
    <path d="m974.5 864.44c-1.534 6e-3 -3.0331 0.1719-4.5625 0.5-24.47 5.2496-38.483 50.558-31.281 101.22-3.5992-45.353 10.803-83.786 34.531-88.594 8.4041-1.7029 16.945 1.0266 24.906 7.2188l0.0312 0.0312c28.549 29.67 40.053 98.516 51.344 153.72 11.709 2.1637 35.543 2.7633 67.656 12.719 65.857 20.417 159.45 56.684 225.19 84.938 3.7017 4.4748 6.1817 14.977 15 15.188-0.5488-2.0978-1.0752-4.193-1.5937-6.2812-2.086-3.144-3.6095-6.7342-5.4063-8.9063-65.737-28.253-159.33-64.521-225.19-84.938-32.113-9.9555-55.948-10.555-67.656-12.719-11.854-57.957-23.913-130.97-55.719-157.88-8.3245-10.32-17.789-16.258-27.25-16.219z"/>
    <path d="m979.59 875.28c-1.6971 6e-3 -3.4018 0.1719-5.0938 0.5-27.072 5.2496-42.561 50.589-34.594 101.25s36.397 87.468 63.469 82.219 42.561-50.589 34.594-101.25c-7.4696-47.495-32.919-82.814-58.375-82.719z" fill="url(#m)"/>
    <path d="m988.02 904.98c5.7406 2.3985 11.435 7.3564 16.448 14.425 3.4258 4.8304 6.4979 10.608 9.0891 17.123-4.6173 6.0116-10.352 14.197-19.028 6.1864-11.344-10.473-6.0065-27.832-6.5089-37.734z"/>
    <path d="m971.31 905.81c0.34928 9.6452 10.326 25.915 0.61571 40.373-6.8812 10.246-13.808 4.2743-19.292-0.1466 0.62941-7.1599 1.9628-13.767 3.9288-19.527 3.3797-9.9016 8.514-17.148 14.748-20.7z"/>
    <path d="m1019.6 957.64c0.2052 1.1065 0.4092 2.2155 0.5864 3.3424 2.6571 16.903 1.6127 32.96-2.199 45.445-2.8872-7.188-16.37-10.747-13.81-31.02 1.9397-15.356 9.5685-16.406 15.422-17.768z"/>
    <path d="m953.45 967.79c5.2536-0.1834 11.16 0.967 15.012 12.93 4.2112 13.081-0.38706 20.587-4.134 26.564-4.8632-9.2414-8.6579-20.62-10.643-33.248-0.32756-2.0838-0.57486-4.1629-0.79163-6.2158l0.55707-0.029z"/>
    <path d="m989.75 997.93c14.232-0.078 12.756 27.767 20.26 24.628-3.7298 4.7736-8.1674 7.8379-13.106 8.7959-7.1846 1.3938-14.72-1.7925-21.579-8.6492 1.726-8.2106 1.4691-23.004 12.754-24.658 0.58146-0.085 1.1356-0.1144 1.6712-0.1173z"/>
    <path d="m1139.6 982.31c-17.873-0.19424-63.642 22.395-46.647 34.991l247.18 80.134c-0.1138-0.4909-0.2344-0.9755-0.3437-1.4688-2.5199-11.375-3.5944-22.509-3.4063-33.094l-192.09-79.812c-1.6269-0.49741-3.1729-0.73355-4.6875-0.75z" fill="url(#aq)"/>
    <path d="m1850.1 913.53-3.3125 2.5c-6.6457 5.0212-5.0455 28.588 1.5 32.875 42.026 27.524 58.129 38.893 80.188 53.938-1.0819-1.8965-2.21-3.7527-3.4375-5.5-29.393-41.278-51.889-67.267-74.938-83.812z" fill="url(#n)"/>
    <path transform="translate(936.08 774.52)" d="m191 49.375c-0.41688-0.10526-10.359 2.0912-13.705 5.9996-2.831 3.307-3.345 6.7914 0.52654 8.6522 23.091 11.098 32.023 17.784 17.366 19.192s-45.627-14.358-67.938-22.562c-13.509-5.2402-27.696-9.5009-42.281-9.625-0.97237-0.0083-1.9619 0.0018-2.9375 0.03125-11.541 1.379-22.214 9.4159-26.156 20.438 5.6242-10.038 16.317-16.931 27.281-18.344-15.743 9.8749-15.509 28.067-19.344 44.219 4.1207 0.99526 3.1582-11.076 5.25-15.031 2.3769-9.5234 5.4548-19.921 13.344-26.344 9.5867-5.1654 20.387 0.06117 30.188 1.9062 24.024 6.4509 45.341 20.1 69.125 27.156 4.3653 1.1141 9.2669 1.7342 13.688 0.625 6.1767-0.68625 13.829-5.4759 5.9688-10.25-7.9053-4.6608-22.583-10.88-22.692-17.187-0.0364-2.09 6.6551-5.1785 9.63-4.751 2.2209-2.8736 2.903-4.0706 2.6875-4.125z" fill="#fff"/>
    <path d="m1528.3 1020.6c-3.9753 0.4024-7.7793 6.5979-4.75 11.375l7.6874 7.9062c36.596 49.475 13.507-21.594-1.25-19.062-0.5558-0.1998-1.1196-0.2762-1.6874-0.2187z" fill="url(#o)"/>
    <path d="m1883.2 942.34c-1.3186 3.2005-2.0313 6.7175-2.0313 10.406 0 14.854 6.472 19.61 17.031 29.656 12.542 11.933 24.355 17.944 32.156 20.719-1.0085-1.74-2.0549-3.4501-3.1876-5.0625-16.362-22.978-30.597-41.2-43.969-55.719z" fill="url(#ar)"/>
    <path d="m1881 951.35s8.6831 0.12426 15.152 8.7126c3.3222 5.0644 11.601 12.211 13.006 29.042l-27.779-21.213z" fill="url(#p)"/>
    <path d="m979.59 895.02c-1.3332 5e-3 -2.679 0.14007-4.0082 0.39793-21.267 4.1258-33.429 39.771-27.17 79.587s28.575 68.744 49.842 64.618 33.429-39.771 27.17-79.587c-5.8679-37.328-25.836-65.091-45.834-65.016z" fill="url(#q)"/>
    <path d="m1547.5 1096.2c-7.4868 7.3762 15.392 64.616 35.381 83.266 5.97 7.5255 32.908 10.555 67.69 13.191-0.5185-61.399 0-12.572 0-88.723z" fill="url(#as)"/>
    <path d="m1554.4 1102.7c-6.4738 6.3782 13.309 55.873 30.594 72 5.1623 6.5073 28.455 9.1273 58.531 11.406-0.4483-53.091 0-10.871 0-76.719z" fill="url(#at)"/>
    <path transform="translate(936.08 774.52)" d="m234.9375,83.34375c-.0682.01759-.13253.04977-.1875.09375-.0486.03382-.0912.07637-.125.125-9.1619,6.69646-14.05625,13.16301-34.34375,21.375-.015.006-.0163.0251-.0312.0312l-.25.0625c-.1702.0518-.30696.20095-.34375.375l-.0625.28125v.0312l-5.9375,21.34375c-.0734.27062-4.22713,15.22938-3.95003,15.27221l5.35628-14.49096c.23495.022.47326-.14626.53125-.375l5.875-20.8125c20.5507-8.26911 25.467-15.06808 34.4375-21.59375 .21028-.14929.26928-.47375.125-.6875l-.5313-.71865-.0625-.09375c-.0772-.11667-.20538-.19825-.34375-.21875-.0517-.0082-.10459-.0082-.15625,0z" fill="#fff"/>
    <path d="m1367.4 928.13c-0.9843 0.52722-2.5384 0.01-1.8175 1.6631l1.2546 10.649c-5.1384 1.7591-10.252 3.611-15.406 5.3125-7.2811 20.48-7.4994 43.178-2.0225 64.117 0.9447 3.5948 2.1357 7.119 3.4283 10.602 2.2526-0.2004 1.9679-1.5481 0.925-3.3112-7.4792-21.516-8.2482-45.47-1.5909-67.296 0.1-2.1489 1.4542-3.0921 3.375-3.4503 4.4873-1.516 9.0298-3.1801 13.478-4.5989-0.6026-4.5539-1.0527-9.1295-1.6245-13.687z" fill="url(#r)"/>
    <path d="m1393.9 979.47c-2.4905 0.0364-4.9597 0.26662-7.4374 0.65625-39.646 6.2331-61.648 56.202-49.125 111.62 3.096 13.703 8.0047 26.474 14.25 37.812-0.1621-0.693-0.3106-1.3711-0.4688-2.0625 1.2072 2.627 2.4758 5.1918 3.8125 7.6875-17.017-74.866-13.042-140.82 46.656-143.06 23.057-0.865 46.717 19.113 64.937 51.781 0.18 0.3227 0.3524 0.6436 0.5313 0.9688 0.055 0.1032 0.1011 0.2091 0.1563 0.3125 6.2503 11.735 11.796 24.944 16.344 39.312-0.091-0.7911-0.2058-1.5804-0.3125-2.375 0.8006 2.3647 1.5957 4.7568 2.3438 7.1875-0.068-0.6035-0.1426-1.207-0.2188-1.8125 10.022 32.245 15.321 70.274 13.125 110.28l6.25 3.0938c51.245 1.8639 97.322 8.2092 146.09 7.9688-45.836-0.4277-89.664-6.2074-138.09-7.9688l-6.25-3.0938c3.9614-72.17-16.57-137.89-44.969-174.84-17.485-26.823-42.656-43.838-67.625-43.469z" fill="url(#au)"/>
    <path d="m1495.2 998.84c-7.1827-0.18376-4.3611 12.473 2.125 24.844l18.219 14.812c6.2002 5.0386 40.562 34.28 48.219 36.562 6.1189 1.8238 15.183 2.1771 18.969-0.5625-2.5649-3.2812-9.7223-8.8173-18.687-14.438-2.9585-1.8544-15.096 1.3758-18.094-1.5625-2.6727-2.6195-4.8127-5.4984-6.625-8.5-2.3-2.5895-4.9627-5.8924-8.0938-10.125l-7.6874-7.9062c-2.3805-3.7538-0.5421-8.3693 2.2812-10.375-0.371-0.6155-0.7252-1.2405-1.125-1.8438-6.8161-10.286-20.526-18.85-26.469-20.25-1.1707-0.42098-2.1634-0.63405-3.0312-0.65625z" fill="url(#av)"/>
    <path d="m980.05 899.47c-1.2508 5e-3 -2.5058 0.13922-3.7529 0.38115-1.3497 0.26185-2.66 0.67756-3.9288 1.2021-0.0474 0.0733-0.0734 0.15941-0.11728 0.23456-8.5854 3.4757-15.124 12.344-19.116 24.042-4.5715 13.393-5.9087 30.72-3.0786 48.993l0.0293 0.29319c2.8893 18.38 9.4623 34.254 17.914 45.211s19.008 17.151 29.583 15.1 18.538-11.78 23.133-25.244 5.9386-30.907 3.0493-49.286c-2.7087-17.231-8.6698-32.256-16.36-43.1-5.8763-8.2856-12.814-14.19-20.201-16.507-0.0121-0.0284-0.0169-0.0599-0.0293-0.088-2.3586-0.80104-4.7379-1.2404-7.1246-1.2314zm7.9749 5.5121c5.7406 2.3985 11.435 7.3564 16.448 14.425 3.4258 4.8304 6.4979 10.608 9.0891 17.123-4.6173 6.0116-10.352 14.197-19.028 6.1864-11.344-10.473-6.0065-27.833-6.5089-37.734zm-16.712 0.82095c0.34928 9.6452 10.326 25.915 0.61571 40.373-6.8812 10.246-13.808 4.2743-19.292-0.14659 0.62941-7.16 1.9628-13.767 3.9288-19.527 3.3797-9.9016 8.514-17.148 14.748-20.7zm48.26 51.837c0.2052 1.1065 0.4092 2.2156 0.5864 3.3424 2.6571 16.903 1.6127 32.96-2.199 45.445-2.8872-7.188-16.37-10.747-13.81-31.02 1.9397-15.356 9.5685-16.406 15.422-17.768zm-66.116 10.145c5.2536-0.18339 11.16 0.96697 15.012 12.93 4.2112 13.081-0.38706 20.587-4.134 26.563-4.8632-9.2414-8.6579-20.62-10.643-33.248-0.32756-2.0838-0.57486-4.1628-0.79163-6.2157l0.55707-0.0293zm36.298 30.14c14.232-0.0776 12.756 27.767 20.26 24.628-3.7298 4.7736-8.1674 7.8379-13.106 8.7959-7.1846 1.3938-14.72-1.7925-21.579-8.6492 1.726-8.2106 1.4691-23.004 12.754-24.658 0.58146-0.0852 1.1356-0.11436 1.6712-0.11728z" fill="url(#s)"/>
    <path d="m1401.3 1007.2c-2.2807 0.038-4.5434 0.254-6.8124 0.6563-36.306 6.4358-56.436 58.056-44.969 115.28s50.194 98.373 86.5 91.938 56.436-58.025 44.969-115.25c-10.751-53.649-45.476-93.195-79.688-92.625z" fill="url(#t)"/>
    <path d="m1400.8 1024.3c-1.9684 0.034-3.9592 0.2508-5.9273 0.5991-15.702 2.7821-27.747 15.277-34.565 32.757s-8.5823 40.046-3.8296 63.75 15.134 44.132 28.238 58.057c13.104 13.925 29.085 21.424 44.788 18.642s27.772-15.31 34.598-32.79 8.5828-40.012 3.8295-63.716c-4.4559-22.222-13.852-41.558-25.807-55.361-8.3405-9.6299-17.989-16.611-28.071-19.874-0.052-0.2381-0.072-0.5046-0.1332-0.7323-2.5081-0.547-5.0658-0.8788-7.5923-0.9988h-0.066c-1.8264-0.2295-3.6244-0.3634-5.4611-0.3328zm-10.556 6.0919c0.3127 12.997 15.048 35.157 0.8324 54.828-11.709 16.204-23.947 2.205-32.367-3.1291v-0.033c0.9455-8.341 2.7969-16.072 5.4609-22.903 5.615-14.398 14.653-24.686 26.074-28.762zm24.309 0.566c8.5924 3.2056 16.949 9.3971 24.408 18.01 5.2574 6.0697 10.066 13.312 14.119 21.472-6.9575 8.1136-15.562 21.74-29.104 10.12-15.94-13.678-9.2259-36.038-9.4238-49.601zm48.784 68.976c0.1791 0.8133 0.368 1.6414 0.5329 2.4634 4.6134 23.008 2.8419 44.88-3.6297 61.452-0.5494 1.4071-1.1511 2.7678-1.7648 4.0946-2.9312-10.622-24.428-14.642-20.546-43.21 3.1646-23.284 16.748-22.298 25.407-24.801zm-97.634 14.481c7.2486 0.023 15.096 2.3213 20.346 17.477 6.0421 17.441-0.3595 27.532-5.7607 35.553-8.9781-12.512-16.13-28.637-19.78-46.838-0.3965-1.9787-0.6958-3.9333-0.9989-5.8922 1.5188-0.09 3.1194-0.2127 4.7619-0.2664 0.4768-0.017 0.9485-0.035 1.4318-0.033zm51.315 40.713c17.912-0.09 18.709 28.124 25.674 32.957-4.2001 3.0086-8.8409 5.0652-13.886 5.9588-10.7 1.8958-21.817-1.5936-32.034-9.2877 1.8833-11.341 3.1723-27.468 17.815-29.461 0.8454-0.1149 1.652-0.1625 2.4309-0.1664z" fill="url(#u)"/>
    <path d="m1401.5 1029.6c-1.8474 0.032-3.7156 0.2354-5.5625 0.5624-14.736 2.6116-26.04 14.341-32.438 30.75s-8.0539 37.592-3.5938 59.844 14.202 41.428 26.5 54.5 27.295 20.112 42.031 17.5 26.063-14.372 32.469-30.781 8.0545-37.561 3.5938-59.813c-4.1816-20.861-13-39.012-24.219-51.969-7.827-9.04-16.882-15.594-26.344-18.656-0.048-0.2235-0.068-0.4736-0.125-0.6874-2.3538-0.5136-4.754-0.8249-7.125-0.9376h-0.062c-1.7141-0.2154-3.4014-0.3411-5.125-0.3124z"/>
    <path d="m1383.9 1042.7c-18.605 12.39-27.678 44.398-20.687 79.281 8.3791 41.813 36.66 71.89 63.187 67.187 11.04-1.957 20.022-9.6335 26.156-20.937-3.6959 2.4603-11.8 3.653-16.197 4.4323-27.032 2.6823-45.052-14.598-51.953-70.846-1.8875-15.384 12.115-57.942 12.966-67.995 1.0037-11.86-18.131 17.463-13.472 8.8768z" fill="url(#z)"/>
    <path d="m1401.5 1029.6c-1.8474 0.032-3.7156 0.2354-5.5625 0.5624-14.736 2.6116-26.04 14.341-32.438 30.75s-8.054 37.592-3.5938 59.844 14.202 41.428 26.5 54.5 27.295 20.112 42.031 17.5 26.063-14.372 32.469-30.781 8.0545-37.561 3.5938-59.813c-4.1816-20.861-13-39.012-24.219-51.969-7.8271-9.04-16.882-15.594-26.344-18.656-0.048-0.2235-0.068-0.4736-0.125-0.6874-2.3538-0.5135-4.754-0.8249-7.125-0.9376h-0.062c-1.7141-0.2154-3.4014-0.3411-5.125-0.3124zm-9.9062 5.7187c0.2934 12.2 14.122 33.003 0.7812 51.469-10.989 15.211-22.473 2.0699-30.375-2.9374v-0.031c0.8874-7.83 2.6249-15.088 5.125-21.5 5.2694-13.516 13.751-23.174 24.469-27zm22.812 0.5313c8.0636 3.0092 15.906 8.8214 22.906 16.906 4.9337 5.6979 9.4469 12.497 13.25 20.156-6.5292 7.6166-14.604 20.408-27.312 9.5-14.959-12.84-8.6581-33.83-8.8438-46.562zm45.781 64.75c0.1679 0.7635 0.3453 1.5409 0.5 2.3124 4.3295 21.598 2.667 42.13-3.4063 57.688-0.5155 1.3209-1.0801 2.5981-1.6562 3.8437-2.7508-9.9714-22.925-13.745-19.281-40.562 2.9698-21.857 15.717-20.932 23.844-23.281zm-91.625 13.594c6.8025 0.021 14.167 2.1791 19.094 16.406 5.6702 16.372-0.3374 25.845-5.4062 33.375-8.4255-11.746-15.137-26.883-18.562-43.969-0.3722-1.8574-0.653-3.6923-0.9375-5.5312 1.4253-0.085 2.9274-0.1996 4.4688-0.25 0.4475-0.015 0.8902-0.033 1.3437-0.031zm48.156 38.219c16.81-0.085 17.558 26.401 24.094 30.938-3.9416 2.8242-8.2967 4.7548-13.031 5.5937-10.042 1.7796-20.474-1.496-30.062-8.7187 1.7674-10.646 2.977-25.785 16.719-27.656 0.7934-0.108 1.5503-0.1526 2.2813-0.1563z" fill="url(#v)"/>
    <path d="m985.82 955.28c-0.20096 8.4e-4 -0.40382 0.0236-0.60419 0.0672-3.2058 0.6961-5.039 6.71-4.0956 13.428s4.3074 11.598 7.5131 10.902 5.0391-6.71 4.0956-13.428c-0.88452-6.2979-3.8945-10.982-6.909-10.969z" fill="url(#ax)" stroke="url(#aw)"/>
    <path d="m1903.6 1057.8c-3.722 0.053-7.186 0.4648-9.5938 1.125l-160.94 44.125c-7.7052 2.1127-13.042 9.0149-13.312 17-0.2408 7.1056 0.2257 18.14 4.5 24.406 2.2602 0.7521 4.5437 1.1246 6.75 0.9687 48.77-3.4472 107.56-19.95 150.59-38.062 7.3638-3.0994 20.064-16.701 22.937-24.156 3.3265-8.6305 7.3783-16.984 6.125-25.063-2.3306-0.2549-4.7414-0.3765-7.0624-0.3437z" fill="url(#ay)"/>
    <path d="m1906.0312,1057.8438c.3627.011.7303.013 1.0938.031-.3664-.016-.7283-.022-1.0938-.031zm2.875.1562c.5264.042 1.0418.07 1.5626.125-.5207-.055-1.0355-.085-1.5626-.125zm1.75.1562c1.2534,8.0782-2.7984,16.432-6.125,25.0626-2.8733,7.455-15.5737,21.0568-22.9374,24.1562-43.0319,18.1121-101.8236,34.6153-150.5938,38.0625-2.2063.1559-4.4898-.2167-6.75-.9687 .034.05.059.1071.094.1562 4.5829,6.5446 13.6865,12.8133 21.6562,12.25 48.7702-3.4472 107.5619-19.9504 150.5938-38.0625 7.3638-3.0994 20.0641-16.7011 22.9374-24.1563 4.1948-10.8832 9.5781-21.3516 3.9688-31.3437-1.6322-2.9076-6.9526-4.5117-12.8438-5.1563zm-186.4062,86.3126c-.2671-.3917-.5118-.792-.75-1.2188 .2366.4236.4847.8298.75,1.2188zm-4.3125-15.125c.09,1.0829.2231,2.1637.375,3.25-.1509-1.0769-.2852-2.1764-.375-3.25z" fill="url(#ba)"/>
    <path d="m1140.4 979.59c-17.873-0.19424-27.214 30.966-10.219 43.562l209.38 71.094c-2.1869-11.756-2.8485-23.22-2.1562-34l-192.31-79.906c-1.6269-0.49741-3.1729-0.73355-4.6875-0.75z" fill="url(#bb)"/>
    <path d="m1132 1026c9.5145-0.205 15.971-6.8201 17.796-18.007 2.0522-8.2291-2.2014-26.543-9.814-29.813l-21.323-9.1397c-7.6129-3.2692-24.769-8.3875-25.068 0.0818 0 0 1.6356 4.8128-0.7108 20.184s-17.349 17.461-9.568 20.32l43.111 15.831c1.9616 0.414 3.8146 0.582 5.5768 0.5441z" fill="url(#w)"/>
    <path d="m1057.3125,1030.6875c-.042.6461-.1134,1.2884-.1563,1.9375h.094c-.029.3332-.072.6646-.094,1h.094c-.029.3332-.072.6646-.094,1h.094c-.029.3332-.072.6646-.094,1h.094c-.029.3332-.072.6646-.094,1h.094c-.029.3332-.072.6646-.094,1h.094c-.029.3332-.072.6646-.094,1 13.0834,1.6004 33.691,3.4785 59.9688,11.625 65.8574,20.4167 159.4503,56.6843 225.1875,84.9375 3.7017,4.4748 6.1817,14.9766 15,15.1875-.066-.2503-.1278-.4996-.1875-.75-2.3484-6.1465-4.3506-12.6087-6-19.3125-.2698-.4002-.5326-.7866-.8125-1.125-65.7372-28.2532-159.3301-64.5208-225.1875-84.9375-32.1132-9.9555-55.9477-10.5549-67.6562-12.7188-.056-.2728-.1004-.57-.1563-.8437zm4.0313,2.4375c3.2164.3788 6.5466.7852 10.4687,1.3125-3.9466-.4693-7.5182-.9016-10.4687-1.3125zm0,1c3.2164.3788 6.5466.7852 10.4687,1.3125-3.9466-.4693-7.5182-.9016-10.4687-1.3125zm0,1c3.2164.3788 6.5466.7852 10.4687,1.3125-3.9466-.4693-7.5182-.9016-10.4687-1.3125zm0,1c3.2164.3788 6.5466.7852 10.4687,1.3125-3.9466-.4693-7.5182-.9016-10.4687-1.3125zm0,1c3.2164.3788 6.5466.7852 10.4687,1.3125-3.9466-.4693-7.5182-.9016-10.4687-1.3125zm0,1c3.2164.3788 6.5466.7852 10.4687,1.3125-3.9466-.4693-7.5182-.9016-10.4687-1.3125z" fill="#4d4d4d"/>
    <path d="m1086.2 958.78c-10.876 0.23555-18.257 7.8351-20.344 20.688-1.6589 6.6854 2.672 18.957 8.6969 25.704 13.498 15.114 55.025 25.845 55.025 25.845s-1.8957-21.324-0.6233-30.08c2.6821-17.658 21.796-20.06 12.902-23.344l-49.281-18.188c-2.2423-0.47553-4.3605-0.66862-6.375-0.625z" fill="url(#x)" opacity=".9828"/>
    <path d="m1378 987.59 10.752-2.218c-29.924-22.197-52.733-24.843-70.474-30.546 23.082 10.932 50.143 15.531 59.722 32.764z" fill="#fff" fill-rule="evenodd"/>
    <path d="m1663.7 996.41c-0.4657 0.9583-21.287-8.5303-46.505-21.193s-45.284-23.705-44.819-24.664 21.287 8.5304 46.505 21.193 45.284 23.705 44.819 24.664z" fill="#fff"/>
    <path transform="matrix(.94484,.32753,-.02074,.99978,0,0)" d="m1219.9 531.48h27.161v7.6904h-27.161z" fill="url(#y)"/>
    <path transform="matrix(.94484,.32753,-.02074,.99978,0,0)" d="m1221.6 531.97h23.707v6.7127h-23.707z" fill="url(#aa)"/>
    <path d="m1394.7812,982.625c-2.4646.0371-4.8907.25954-7.3437.65625-39.2489,6.34636-61.0224,57.22625-48.625,113.65625 2.8367,12.9122 7.2145,24.9924 12.75,35.875-.093-.3626-.1894-.7302-.2813-1.0937-.1033-.4167-.211-.8334-.3124-1.25-.054-.2192-.1044-.4378-.1563-.6563v-.062c-.045-.1893-.1075-.3741-.1563-.5625-.034-.1445-.06-.2928-.094-.4375-.3778-1.6125-.7332-3.2319-1.0625-4.875-.1804-.9001-.3352-1.7903-.5-2.6875-.1604-.8898-.321-1.7668-.4688-2.6563-.1887-1.1291-.3668-2.2515-.5312-3.375-.062-.4284-.129-.8528-.1875-1.2812-.012-.083-.021-.1666-.031-.25-.018-.1358-.046-.2707-.062-.4062-.016-.1151-.016-.2289-.031-.3438-.082-.6264-.1758-1.2506-.25-1.875-.033-.2714-.07-.541-.094-.8125-.014-.1246-.023-.2497-.031-.375v-.031c-.014-.124-.017-.2503-.031-.375-.095-.8567-.2005-1.7101-.2812-2.5624-.027-.2926-.037-.5834-.062-.875-.1186-1.33-.1956-2.6505-.2813-3.9688-.024-.3637-.073-.731-.094-1.0938v-.094c-.01-.063-.023-.1242-.031-.1875-7.9548-59.4059 2.8289-106.36662 53.0313-108.25 32.396-1.21536 65.9923,38.6702 84,97.1875-.068-.6035-.1425-1.207-.2187-1.8125 10.0217,32.2447 15.3201,70.2747 13.125,110.2812l6.25,3.0626c51.2438,1.8632 97.3222,8.2403 146.0937,8-45.8355-.4285-89.6637-6.239-138.0937-8l-6.25-3.0626c4.0451-73.7092-17.4409-140.7114-46.7813-177.1874-.047-.058-.078-.1605-.125-.2188-17.015-23.68479-39.9967-38.34624-62.7813-38z" fill="url(#ab)"/>
    <path d="m1412.5 1090.8c-0.4525 0.015-0.9012 0.05-1.3514 0.1299-7.2017 1.2766-11.195 11.516-8.9203 22.868s9.9569 19.514 17.159 18.237 11.195-11.51 8.9203-22.862c-2.1327-10.642-9.021-18.487-15.807-18.374z" fill="url(#ac)" stroke="url(#bc)"/>
    <path d="m1233.5 824.34c-7.2195 0.0315-12.852 0.5705-14.312 2.0312-7.9049 7.9052-7.9687 32.594-7.9687 32.594l2.5312 15.125c43.242 20.071 88.693 33.595 134.59 48.281-1.9585-3.6162-5.1851-8.1029-9.9375-13.656l-60.625-57.094s17.877-11.735 16-18.438-10.307-3.6218-16.5-5.2812c-4.2578-1.1409-27.898-3.6318-43.781-3.5625z" fill="#333"/>
    <path d="m1257.9 828.62c-9.8594 0.0829-18.55 0.97549-21.281 3.0625-7.2841 5.5654-7.9687 32.594-7.9687 32.594l2.9687 17.719c40.572 17.052 82.825 29.389 125.38 43.156-2.6236-5.9754-5.1819-11.605-7.6875-16.969-14.282-12.781-54.125-48.629-54.125-51.25 0-3.1641 0.6156-19.587-0.5-23.75-0.6972-2.6022-20.349-4.7007-36.781-4.5625z" fill="#808080"/>
    <path d="m1420.6 825.71c-26.961 3.0285-53.552 6.0619-75.281 8.8438-0.7002 7.6225 0.2958 16.034 0.9062 20.125 11.739 18.197 23.473 36.891 40.844 68.969 48.971 1.4714 149.93 27.546 92-18.906l-68.406-67.031s6.2022-6.0165 9.9375-12z" fill="#333"/>
    <path d="m1427.9 851.14c47.997 4.5125 90.758 20.246 132.14 38.929l-56.429 40-22.143-25.714z" fill="#4d4d4d"/>
    <path d="m1424.9 825.24c-21.127 2.3722-42.136 4.736-60.969 7-1.8806 10.354 0.8437 27 0.8437 27l5.5625 34.469c7.197 12.341 15.336 26.921 25.188 45.625 0.5591 1.0157 3.8432 2.0634 9.1875 3.0312 53.209-0.43089 138.31 2.5294 85.312-39.969 0 0-55.721-37.136-65.125-59.438-2.9234-6.9334 0.1082-10.686 0-17.719z" fill="url(#bh)"/>
    <path d="m1468.3 825.9c-0.5672 0.69477-1.1633 1.4126-1.6875 2.25-0.936 1.4956-1.5881 3.4234-1.25 6.1562 0.3544 2.8663 2.4015 5.4056 3.9687 8.25s2.7132 5.8685 1.625 9.7188l-0.031 0.0625v0.0937c-0.067 2.0063-0.129 4.012-0.125 6.0312h0.9688c0-1.993 0.027-3.9976 0.094-6 1.1111-4.1574-0.1511-7.598-1.75-10.5-1.6221-2.944-3.5228-5.4698-3.8125-7.8125-0.3065-2.4761 0.2543-4.0027 1.0937-5.3438 0.5803-0.92702 1.3008-1.762 2-2.6562l-1.0937-0.25z" fill="#666"/>
    <path d="m1468 825.9c-0.5672 0.69477-1.1633 1.4126-1.6875 2.25-0.936 1.4956-1.5881 3.4234-1.25 6.1562 0.3544 2.8663 2.4015 5.4056 3.9687 8.25s2.7132 5.8685 1.625 9.7188l-0.031 0.0625v0.0937c-0.067 2.0063-0.129 4.012-0.125 6.0312h0.9687c0-1.993 0.027-3.9976 0.094-6 1.1111-4.1574-0.1511-7.598-1.75-10.5-1.6221-2.944-3.5228-5.4698-3.8125-7.8125-0.3065-2.4761 0.2543-4.0027 1.0937-5.3438 0.5803-0.92702 1.3008-1.762 2-2.6562l-1.0937-0.25z" fill="#fff"/>
    <path d="m1536.2 859.46c-13.657-0.23789-28.78 8.3294-38.531 23.281-6.6262 10.16-9.5354 21.384-8.9375 31.438 0.03 0.50276 0.077 1.0034 0.125 1.5s0.09 1.0052 0.1562 1.5c1.2361 9.2726 5.614 17.277 13 22.094 15.97 10.415 39.902 1.99 53.469-18.812 7.236-11.095 10.052-23.474 8.6875-34.188-0.074-0.58622-0.1503-1.1746-0.25-1.75-0.184-1.0634-0.4184-2.1018-0.6875-3.125-0.045-0.16955-0.078-0.33166-0.125-0.5-0.097-0.34714-0.2061-0.68939-0.3125-1.0312-0.1616-0.51901-0.347-1.0251-0.5313-1.5312-0.1782-0.48948-0.3631-0.96085-0.5625-1.4375v-0.0312c0-0.0127-0.026-0.0185-0.031-0.0312-0.2018-0.47953-0.4017-0.94055-0.625-1.4062-2.2392-4.6708-5.5442-8.6552-9.9062-11.5-4.4917-2.9293-9.5933-4.3757-14.938-4.4688zm-1.7812 6.6875c4.9318-0.17501 9.6933 1.0011 13.812 3.6875 3.3633 2.1934 5.9383 5.1995 7.7812 8.7188-4.5397 4.5137-9.5476 8.7225-15.062 12.625-4.0155-0.60109-9.2337 0.49095-14.375 3.3438-5.115 2.8383-9.0612 6.8176-11.094 10.75-5.7738 2.4608-11.932 4.6665-18.5 6.625-0.7512-8.4852 1.5834-18.078 7.2187-26.719 7.6547-11.737 19.369-18.646 30.219-19.031zm24.812 24.031c0.5994 8.3424-1.7758 17.683-7.2813 26.125-11.134 17.072-30.881 23.94-44.062 15.344-3.4522-2.2514-6.09-5.3293-7.9375-8.9688 6.183-2.7925 11.096-4.2414 16.594-6.3125 3.8717 3.0374 11.504 2.5937 18.938-1.5312 7.5977-4.2159 12.583-10.944 12.594-16.312 3.3837-2.428 7.0939-5.1862 11.156-8.3438z" fill="url(#ad)"/>
    <path d="m1563 925.63c-63.189 0-117.39 11.446-127.84 17.777 35.9 3.8806 109.3 6.0088 155.22 1.3717 17.221-2.129 44.97-5.0977 69.134-9.8488-22.774-4.8728-57.22-9.3002-96.513-9.3002z" fill="#4d4d4d"/>
    <path d="m1700.3 904.95c0 15.286-49.185 32.401-77.983 32.401s-118.35 11.753-118.35-3.5334 55.845-50.536 84.643-50.536c23.301 0 44.435 9.7495 51.654 21.569 1.7031 2.7883 60.039-2.8183 60.039 0.0995z" fill="url(#af)"/>
    <path transform="translate(936.08 774.52)" d="m191 49.375c-0.41688-0.10526-10.359 2.0912-13.705 5.9996-2.831 3.307-3.345 6.7914 0.52654 8.6522 23.091 11.098 32.023 17.784 17.366 19.192s-45.627-14.358-67.938-22.562c-13.509-5.2402-27.696-9.5009-42.281-9.625-0.97237-0.0083-1.9619 0.0018-2.9375 0.03125-11.541 1.379-22.214 9.4159-26.156 20.438 5.6242-10.038 16.317-16.931 27.281-18.344-15.743 9.8749-15.509 28.067-19.344 44.219 4.1207 0.99526 3.1582-11.076 5.25-15.031 2.3769-9.5234 5.4548-19.921 13.344-26.344 9.5867-5.1654 20.387 0.06117 30.188 1.9062 24.024 6.4509 45.341 20.1 69.125 27.156 4.3653 1.1141 9.2669 1.7342 13.688 0.625 6.1767-0.68625 13.829-5.4759 5.9688-10.25-7.9053-4.6608-22.583-10.88-22.692-17.187-0.0364-2.09 6.6551-5.1785 9.63-4.751 2.2209-2.8736 2.903-4.0706 2.6875-4.125z" fill="#fff" filter="url(#bj)"/>
    <path d="m1230.3 812.91c-26.012 0.1644-55.932 2.8178-75.747 7.7809-13.439 3.366-18.372 8.6754-7.0841 15.068 64.273 46.384 136.47 65.755 209.53 89.393-45.087-102.69-71.509-112.6-121.56-112.24-1.6952-0.0113-3.4048-0.011-5.1388 0z" fill="url(#bd)" opacity=".9"/>
    <path transform="translate(936.08 774.52)" d="m272.41 38.344c-1.3919 0.085-2.7678 0.15297-4.1562 0.25l-30.281 41.375c0.9141 0.5482 1.8334 1.0849 2.75 1.625l31.688-43.25z" fill="url(#bg)"/>
    <path d="m1206,813.75c-1.3106.08-2.6301.15863-3.9375.25l-28.5,38.9375c.8607.51618 1.7307,1.02271 2.5937,1.53125l29.8438-40.71875z" fill="url(#ag)"/>
    <path d="m1551.6 805.31c-23.156 7.0918-156.07 19.346-223.7 28.525 18.839 29.508 33.363 50.012 62.631 105.58 3.8689 7.0287 133.42 13.98 205.22 6.7304 49.051-6.0643 171.5-18.07 126.54-51.673-3.7319-2.7893-7.4542-5.3383-11.155-7.7368-3.7304-0.0957-7.2968-0.1904-11.218-0.28305-14.63-9.8178-30.39-19.369-46.895-28.714-7.6338-3.4583-14.14-6.7832-19.101-10.567-26.337-14.237-54.185-28.078-82.324-41.86z" fill="url(#be)" opacity=".9"/>
    <path d="m1428.4 945.87c110.96 47.979 44.212 22.155 107.19 61.719 10.929 6.8858 26.975 25.055 37.25 43.625 5.551 8.8725 9.6017 18.583 11.375 29.125 2.2328 13.274 115.6 18.154 125.53 16.094 57.552-17.153 209.42-43.174 214-59.83-30.474 17.204-158.53 39.247-210.5 54.737-10.074 2.0896-125.08-2.8487-127.34-16.312-1.7987-10.693-5.9008-20.532-11.531-29.531-10.422-18.836-26.696-37.266-37.781-44.25-59.714-37.514-4.4841-17.127-88.969-54.063-6.8438-0.40272-13.314-0.8249-19.219-1.3125z" fill="url(#az)"/>
    <path d="m1378 987.59 10.752-2.218c-29.924-22.197-52.733-24.843-70.474-30.546 23.082 10.932 50.143 15.531 59.722 32.764z" fill="#fff" fill-rule="evenodd" filter="url(#bi)"/>
  </g>
</svg>